<?xml version="1.0"?>
<svg xmlns="http://www.w3.org/2000/svg" xmlns:xlink="http://www.w3.org/1999/xlink" xmlns:svgjs="http://svgjs.com/svgjs" version="1.1" width="512" height="512" x="0" y="0" viewBox="0 0 511.996 511.996" style="enable-background:new 0 0 512 512" xml:space="preserve" class=""><g><g xmlns="http://www.w3.org/2000/svg"><g><g><path d="m482.718 155.782-146.724-40.898-14.894 15.079 14.811 50.065-44.458 56.882 12.289 87.148-52.067 73.429 152.272 42.445c15.824 4.411 32.219-4.877 36.618-20.745l62.841-226.686c4.399-15.868-4.864-32.308-20.688-36.719z" fill="#f45959" data-original="#ff9ed3" style="" class=""/><path d="m499.962 204.923-170.768-47.601 6.717 22.706-32.187 41.182 177.971 49.609z" fill="#65b9d7" data-original="#65b9d7" style="" class=""/></g><g><g><path d="m274.004 200.968 21.796-68.887-31.347-41.701 8.69-19.352-238.468 20.709c-16.363 1.421-28.48 15.875-27.062 32.283l20.244 234.404c1.417 16.408 15.831 28.558 32.194 27.137l232.731-20.211 23.148-87.057z" fill="#f45959" data-original="#ff9ed3" style="" class=""/></g><path d="m274.004 200.968 21.796-68.887-31.347-41.701 8.689-19.353-40.221 3.493-8.468 18.86 31.347 41.701-21.796 68.887 41.926 77.325-23.277 87.542 40.129-3.485 23.148-87.057z" fill="#fe0101" data-original="#ff8aca" style="" class=""/><g><g><path d="m281.583 113.168-272.861 23.696 5.885 68.14 265.413-23.049 15.78-49.874z" fill="#65b9d7" data-original="#65b9d7" style="" class=""/></g><path d="m281.583 113.168-39.666 3.445 13.883 18.468-15.935 50.361 40.155-3.487 15.78-49.874z" fill="#56aac7" data-original="#56aac7" style=""/><path d="m64.266 270.334c1.174 13.593 13.148 23.658 26.74 22.477l137.147-11.91c13.583-1.18 23.64-13.144 22.467-26.727-1.174-13.593-13.148-23.658-26.74-22.477l-137.147 11.91c-13.583 1.18-23.64 13.144-22.467 26.727z" fill="#ffffff" data-original="#ffffff" style=""/></g></g></g><g><path d="m.14 124.665 20.244 234.404c1.74 20.133 20.217 35.708 40.315 33.963l197.075-17.115-12.218 17.231c-1.412 1.992-1.767 4.546-.95 6.847.816 2.301 2.702 4.06 5.054 4.716l152.272 42.445c19.508 5.436 40.481-6.569 45.859-25.966l5.258-18.967c2.59-9.346-11.865-13.35-14.455-4.007l-5.258 18.967c-3.213 11.591-15.744 18.766-27.376 15.524l-141.999-39.582 13.408-18.909 16.061-1.395c3.148-.273 5.787-2.491 6.599-5.544l23.148-87.057c.492-1.851.258-3.819-.655-5.502l-20.931-38.602 4.95-6.334 165.924 46.25-23.109 83.36c-2.519 9.089 11.837 13.45 14.455 4.007l46.82-168.895c5.494-19.822-6.125-40.434-25.902-45.947l-146.724-40.898c-2.624-.732-5.437.017-7.35 1.954l-14.894 15.079c-1.92 1.944-2.631 4.778-1.856 7.398l13.715 46.361c-11.276 14.428-22.553 28.855-33.829 43.283l-11.68-21.541 20.835-65.85c.731-2.311.3-4.832-1.156-6.769l-28.686-38.163 6.875-15.312c1.089-2.426.812-5.248-.728-7.416-1.541-2.168-4.116-3.358-6.763-3.128l-238.462 20.71c-20.456 1.776-35.657 19.9-33.886 40.4zm338.09-1.372 142.475 39.714c11.821 3.295 18.763 15.627 15.474 27.491l-1.437 5.184-159.533-44.469-5.659-19.13zm4.873 54.607-2.874-9.716 150.506 41.953-14.26 51.442-159.937-44.582 25.284-32.35c1.491-1.911 1.969-4.423 1.281-6.747zm-35.187 101.347-21.029 79.087-227.485 19.755c-12.008 1.044-23.036-8.3-24.073-20.311l-12.605-145.951 246.758-21.429-2.628 8.307c-.614 1.941-.413 4.048.557 5.837zm-272.592-180.039 225.746-19.604-3.459 7.703c-1.119 2.492-.794 5.395.847 7.579l9.006 11.981-148.622 12.906c-4.126.358-7.181 3.994-6.823 8.121.343 4.137 4.055 7.197 8.121 6.823l157.948-13.717 9.396 12.5-13.104 41.416-252.947 21.967-4.594-53.196 59.787-5.192c4.126-.358 7.181-3.994 6.823-8.121-.358-4.126-3.986-7.185-8.121-6.823l-59.78 5.192-.464-5.369c-1.059-12.264 8.021-23.104 20.24-24.166z" fill="#000000" data-original="#000000" style="" class=""/><path d="m246.732 231.655c-6.585-5.535-14.928-8.175-23.501-7.429l-137.146 11.91c-17.678 1.535-30.817 17.166-29.291 34.844 1.509 17.468 17.346 30.824 34.861 29.303l137.147-11.91c28.369-2.401 39.781-38.504 17.93-56.718zm-19.228 41.775-137.147 11.91c-9.35.806-17.811-6.298-18.619-15.651-.815-9.442 6.202-17.79 15.644-18.61l137.147-11.91c9.131-.79 17.826 6.476 18.619 15.651.815 9.442-6.203 17.79-15.644 18.61z" fill="#000000" data-original="#000000" style="" class=""/></g></g></g></svg>
